<svg xmlns="http://www.w3.org/2000/svg" xmlns:xlink="http://www.w3.org/1999/xlink" id="Capa_1" width="500" height="500" x="0" style="enable-background:new 0 0 500 500" y="0" version="1.1" viewBox="0 0 500 500" xml:space="preserve"><switch><g><path style="fill:#d1d1d1" d="M326.957,148.839h60.925l73.674,202.322h-64.607l-8.501-28.903h-64.323l-9.067,28.903h-62.623 L326.957,148.839z M375.979,278.903l-18.135-62.34h-0.567l-19.552,62.34H375.979z"/><rect style="fill:#fff" width="62.339" height="202.322" x="38.445" y="148.839"/><g><defs><rect id="SVGID_1_" width="500" height="500"/></defs><clipPath id="SVGID_2_"><use xlink:href="#SVGID_1_" style="overflow:visible"/></clipPath><path style="clip-path:url(#SVGID_2_);fill:#fff" d="M265.324,148.839c67.157,0,91.243,49.872,91.243,100.878 c0,62.339-32.87,101.444-103.428,101.444H163.03V148.839h62.366l-0.026,150.467h24.369c38.537,0,44.488-31.453,44.488-50.439 c0-12.75-3.684-48.171-49.021-48.171l0.053-51.856"/></g><g><defs><rect id="SVGID_3_" width="500" height="500"/></defs><clipPath id="SVGID_4_"><use xlink:href="#SVGID_3_" style="overflow:visible"/></clipPath></g><g><defs><polygon id="SVGID_5_" points="100.691 148.839 100.691 351.161 250.524 351.161 250.524 299.306 163.03 299.306 163.03 148.839"/></defs><use xlink:href="#SVGID_5_" style="overflow:visible;fill:#a4a4a4"/><clipPath id="SVGID_6_"><use xlink:href="#SVGID_5_" style="overflow:visible"/></clipPath></g><path style="fill:#262626" d="M138.754,262.186c6.559,0,11.875-5.317,11.875-11.875c0-6.558-5.316-11.875-11.875-11.875 c-4.209,0-7.526,2.191-9.635,5.493L114,238.659v23.317l15.127-5.272C131.238,259.999,134.551,262.186,138.754,262.186"/></g></switch></svg>